<svg width="29" height="37" viewBox="0 0 29 37" fill="none" xmlns="http://www.w3.org/2000/svg">
<path d="M0.586648 37V0.636363H14.223C17.0166 0.636363 19.3603 1.12168 21.2543 2.09233C23.16 3.06297 24.5982 4.42424 25.5689 6.17613C26.5514 7.91619 27.0426 9.94626 27.0426 12.2663C27.0426 14.5982 26.5455 16.6224 25.5511 18.3388C24.5687 20.0433 23.1186 21.3632 21.201 22.2983C19.2834 23.2216 16.9278 23.6832 14.1342 23.6832H4.42188V18.2145H13.2464C14.88 18.2145 16.2176 17.9896 17.2592 17.5398C18.3009 17.0781 19.0703 16.4093 19.5675 15.5334C20.0765 14.6456 20.331 13.5566 20.331 12.2663C20.331 10.9761 20.0765 9.87524 19.5675 8.96378C19.0585 8.04048 18.2831 7.34209 17.2415 6.86861C16.1998 6.38329 14.8563 6.14062 13.2109 6.14062H7.17401V37H0.586648ZM19.3722 20.5227L28.3743 37H21.0234L12.1811 20.5227H19.3722Z" fill="#FFAA94"/>
</svg>
